<svg xmlns="http://www.w3.org/2000/svg" xmlns:xlink="http://www.w3.org/1999/xlink" width="500" zoomAndPan="magnify" viewBox="0 0 375 374.999991" height="500" preserveAspectRatio="xMidYMid meet" version="1.0"><defs><clipPath id="5f54ce53a0"><path d="M 187.5 0 C 83.945312 0 0 83.945312 0 187.5 C 0 291.054688 83.945312 375 187.5 375 C 291.054688 375 375 291.054688 375 187.5 C 375 83.945312 291.054688 0 187.5 0 Z M 187.5 0 " clip-rule="nonzero"/></clipPath><clipPath id="3c9270f0b1"><path d="M 37.5 110 L 337.5 110 L 337.5 257.5 L 37.5 257.5 Z M 37.5 110 " clip-rule="nonzero"/></clipPath></defs><g clip-path="url(#5f54ce53a0)"><rect x="-37.5" width="450" fill="#6ac66b" y="-37.499999" height="450" fill-opacity="1"/></g><g clip-path="url(#3c9270f0b1)"><path fill="#ffffff" d="M 359.886719 265.296875 L 185.710938 269.894531 L 24.3125 267.59375 Z M 359.886719 258.527344 L 185.710938 263.125 L 24.3125 260.828125 Z M 267.980469 155.964844 C 267.980469 152.035156 271.15625 148.816406 275.128906 148.816406 C 279.0625 148.816406 282.277344 152.035156 282.277344 155.964844 C 282.277344 159.898438 279.0625 163.117188 275.128906 163.117188 C 271.15625 163.117188 267.980469 159.898438 267.980469 155.964844 Z M 237.300781 223.5625 C 237.300781 219.628906 240.519531 216.414062 244.449219 216.414062 C 248.386719 216.414062 251.597656 219.628906 251.597656 223.5625 C 251.597656 227.496094 248.386719 230.710938 244.449219 230.710938 C 240.519531 230.710938 237.300781 227.496094 237.300781 223.5625 Z M 278.34375 208.847656 C 278.34375 204.878906 281.523438 201.699219 285.492188 201.699219 C 289.425781 201.699219 292.605469 204.878906 292.605469 208.847656 C 292.605469 212.78125 289.425781 215.960938 285.492188 215.960938 C 281.523438 215.960938 278.34375 212.78125 278.34375 208.847656 Z M 239.722656 157.894531 C 239.722656 153.960938 242.902344 150.746094 246.832031 150.746094 C 250.808594 150.746094 253.984375 153.960938 253.984375 157.894531 C 253.984375 161.832031 250.808594 165.042969 246.832031 165.042969 C 242.902344 165.042969 239.722656 161.832031 239.722656 157.894531 Z M 175.757812 162.058594 C 175.757812 158.125 178.972656 154.910156 182.90625 154.910156 C 186.839844 154.910156 190.054688 158.125 190.054688 162.058594 C 190.054688 166.027344 186.839844 169.207031 182.90625 169.207031 C 178.972656 169.207031 175.757812 166.027344 175.757812 162.058594 Z M 208.589844 202.757812 C 208.589844 198.824219 211.804688 195.648438 215.742188 195.648438 C 219.675781 195.648438 222.890625 198.824219 222.890625 202.757812 C 222.890625 206.730469 219.675781 209.90625 215.742188 209.90625 C 211.804688 209.90625 208.589844 206.730469 208.589844 202.757812 Z M 139.824219 227.195312 C 139.824219 223.257812 143 220.082031 146.933594 220.082031 C 150.90625 220.082031 154.085938 223.257812 154.085938 227.195312 C 154.085938 231.164062 150.90625 234.34375 146.933594 234.34375 C 143 234.34375 139.824219 231.164062 139.824219 227.195312 Z M 138.765625 193.71875 C 138.765625 189.785156 141.980469 186.570312 145.914062 186.570312 C 149.847656 186.570312 153.0625 189.785156 153.0625 193.71875 C 153.0625 197.652344 149.847656 200.867188 145.914062 200.867188 C 141.980469 200.867188 138.765625 197.652344 138.765625 193.71875 Z M 108.617188 182.292969 C 108.617188 178.359375 111.792969 175.183594 115.765625 175.183594 C 119.699219 175.183594 122.914062 178.359375 122.914062 182.292969 C 122.914062 186.265625 119.699219 189.445312 115.765625 189.445312 C 111.792969 189.445312 108.617188 186.265625 108.617188 182.292969 Z M 90.726562 216.339844 C 90.726562 212.40625 93.902344 209.191406 97.875 209.191406 C 101.808594 209.191406 104.984375 212.40625 104.984375 216.339844 C 104.984375 220.269531 101.808594 223.488281 97.875 223.488281 C 93.902344 223.488281 90.726562 220.269531 90.726562 216.339844 Z M 113.457031 191.714844 C 112.511719 191.484375 111.605469 191.109375 110.773438 190.578125 C 107.558594 196.136719 104.304688 201.660156 101.050781 207.222656 C 101.960938 207.523438 102.828125 207.976562 103.585938 208.546875 C 106.875 202.949219 110.167969 197.3125 113.457031 191.714844 Z M 146.933594 217.546875 C 146.707031 212.820312 146.441406 208.09375 146.214844 203.363281 C 146.101562 203.363281 146.027344 203.363281 145.914062 203.363281 C 145.042969 203.363281 144.171875 203.25 143.304688 203.023438 C 143.566406 208.015625 143.832031 213.011719 144.058594 218 C 145.003906 217.699219 145.949219 217.546875 146.933594 217.546875 Z M 277.546875 214.335938 C 276.980469 213.539062 276.566406 212.667969 276.261719 211.722656 C 268.546875 214.257812 260.867188 216.828125 253.152344 219.363281 C 253.566406 220.234375 253.871094 221.140625 254.023438 222.125 C 261.851562 219.515625 269.683594 216.941406 277.546875 214.335938 Z M 224.210938 207.449219 C 223.722656 208.28125 223.15625 209.078125 222.4375 209.71875 C 226.976562 212.78125 231.476562 215.847656 236.015625 218.910156 C 236.46875 218.039062 237.078125 217.285156 237.753906 216.605469 C 233.257812 213.539062 228.714844 210.472656 224.210938 207.449219 Z M 253.53125 164.855469 C 252.847656 165.535156 252.054688 166.105469 251.183594 166.523438 C 260.339844 178.359375 269.492188 190.199219 278.609375 202.042969 C 279.289062 201.359375 280.085938 200.753906 280.914062 200.300781 C 271.800781 188.496094 262.683594 176.695312 253.53125 164.855469 Z M 237.300781 159.371094 C 230.226562 162.132812 223.191406 164.894531 216.117188 167.65625 L 216.042969 167.691406 L 215.929688 167.65625 C 208.136719 165.800781 200.347656 163.984375 192.550781 162.132812 C 192.550781 163.117188 192.402344 164.058594 192.097656 165.007812 C 200.003906 166.859375 207.910156 168.714844 215.816406 170.566406 C 216.082031 170.644531 216.382812 170.644531 216.648438 170.53125 C 223.835938 167.730469 230.984375 164.929688 238.171875 162.132812 C 237.753906 161.261719 237.453125 160.316406 237.300781 159.371094 Z M 220.734375 194.511719 C 221.566406 195.003906 222.324219 195.648438 222.96875 196.367188 C 229.355469 186.378906 235.75 176.355469 242.144531 166.332031 C 241.277344 165.839844 240.519531 165.273438 239.875 164.550781 C 233.480469 174.542969 227.125 184.527344 220.734375 194.511719 Z M 125.296875 183.84375 C 125.148438 184.828125 124.84375 185.734375 124.390625 186.605469 C 128.398438 188.386719 132.410156 190.125 136.417969 191.863281 C 136.609375 190.917969 136.949219 190.011719 137.402344 189.140625 C 133.355469 187.402344 129.34375 185.625 125.296875 183.84375 Z M 277.964844 164.929688 C 277.058594 165.234375 276.074219 165.386719 275.128906 165.386719 L 282.730469 199.578125 C 283.601562 199.316406 284.546875 199.164062 285.492188 199.164062 C 285.492188 199.164062 285.53125 199.164062 285.566406 199.164062 Z M 124.921875 179.230469 C 140.578125 170.078125 156.277344 160.960938 171.9375 151.804688 L 172.203125 151.65625 L 172.390625 151.882812 C 173.488281 153.128906 174.625 154.378906 175.722656 155.589844 C 176.363281 154.871094 177.121094 154.265625 177.953125 153.773438 C 176.96875 152.675781 175.984375 151.578125 175.039062 150.519531 L 174.738281 150.179688 L 175.117188 149.949219 C 176.515625 149.121094 177.914062 148.324219 179.351562 147.492188 C 195.164062 140.003906 210.9375 132.515625 226.75 125.027344 L 226.9375 124.949219 L 227.085938 125.0625 C 232.269531 128.691406 237.453125 132.289062 242.632812 135.882812 L 242.789062 135.996094 L 242.789062 136.144531 C 243.128906 140.34375 243.503906 144.542969 243.847656 148.703125 C 244.792969 148.402344 245.738281 148.25 246.722656 148.25 C 246.457031 145.109375 246.191406 142.011719 245.925781 138.90625 L 245.851562 138.113281 L 266.390625 152.449219 C 266.769531 151.542969 267.261719 150.710938 267.867188 149.949219 L 245.546875 134.40625 L 245.507812 134.214844 C 245.472656 133.5 245.394531 132.816406 245.320312 132.097656 L 245.320312 131.832031 L 245.546875 131.71875 C 253.871094 128.578125 262.910156 127.632812 271.648438 129.449219 C 278.304688 130.851562 284.546875 133.761719 289.84375 138.035156 C 291.621094 139.4375 293.25 140.988281 294.761719 142.652344 L 295.0625 142.992188 L 282.542969 150.179688 C 283.148438 150.9375 283.601562 151.765625 283.941406 152.675781 L 296.878906 145.261719 L 297.070312 145.488281 C 299.074219 148.175781 300.773438 151.125 302.097656 154.1875 C 306.03125 163.417969 306.527344 173.59375 304.480469 183.316406 C 304.40625 183.769531 304.519531 184.261719 304.824219 184.601562 C 313.75 194.285156 320.972656 206.160156 321.125 219.703125 C 321.164062 223.941406 320.519531 228.140625 319.273438 232.1875 L 319.121094 232.679688 L 318.703125 232.378906 C 310.421875 226.136719 302.136719 219.890625 293.855469 213.652344 C 293.363281 214.484375 292.753906 215.242188 292.074219 215.882812 C 300.660156 222.390625 309.285156 228.894531 317.875 235.363281 L 318.097656 235.554688 L 317.988281 235.816406 C 315.449219 242.171875 311.632812 248.074219 307.242188 253.332031 L 307.128906 253.484375 L 306.980469 253.484375 C 287.949219 253.484375 268.925781 253.484375 249.9375 253.484375 L 249.59375 253.484375 L 249.558594 253.144531 C 248.914062 246.332031 248.273438 239.527344 247.628906 232.679688 C 246.722656 233.019531 245.773438 233.171875 244.792969 233.210938 C 245.433594 239.828125 246.039062 246.449219 246.683594 253.070312 L 246.722656 253.484375 L 246.304688 253.484375 C 239.382812 253.484375 232.5 253.484375 225.574219 253.484375 L 224.589844 253.484375 L 225.351562 252.839844 C 225.691406 252.539062 225.878906 252.121094 225.839844 251.667969 C 225.121094 239.753906 224.441406 227.875 223.722656 215.996094 C 223.683594 215.429688 223.308594 214.9375 222.777344 214.75 C 220.660156 213.957031 218.539062 213.199219 216.421875 212.40625 C 216.191406 212.441406 215.96875 212.441406 215.742188 212.441406 C 213.207031 212.441406 210.824219 211.460938 209.007812 209.71875 C 208.664062 209.566406 208.289062 209.453125 207.910156 209.300781 L 207.003906 208.960938 L 207.910156 208.621094 C 207.949219 208.621094 207.988281 208.621094 208.023438 208.585938 C 207.457031 207.828125 206.964844 206.957031 206.660156 206.046875 C 205.414062 206.503906 204.203125 206.957031 202.953125 207.410156 L 202.839844 207.449219 L 202.730469 207.410156 C 199.019531 206.085938 195.351562 204.722656 191.683594 203.402344 L 191.609375 203.363281 L 191.570312 203.324219 C 184.683594 197.351562 177.761719 191.371094 170.878906 185.394531 L 170.652344 185.207031 L 170.800781 184.945312 C 170.953125 184.675781 171.105469 184.414062 171.292969 184.109375 L 171.332031 183.996094 L 171.445312 183.957031 C 175.152344 182.445312 178.824219 180.894531 182.492188 179.34375 L 182.679688 179.269531 L 182.871094 179.421875 C 190.925781 185.734375 199.019531 192.089844 207.117188 198.445312 C 207.53125 197.574219 208.097656 196.78125 208.78125 196.0625 C 200.457031 189.554688 192.136719 183.011719 183.816406 176.46875 C 183.398438 176.167969 182.792969 176.09375 182.300781 176.316406 C 179.769531 177.378906 177.234375 178.4375 174.699219 179.496094 L 173.714844 179.910156 L 174.28125 178.964844 C 175.832031 176.277344 177.386719 173.59375 178.9375 170.871094 C 178.066406 170.492188 177.234375 169.964844 176.515625 169.320312 C 174.167969 173.40625 171.785156 177.527344 169.402344 181.613281 L 169.328125 181.726562 L 169.214844 181.765625 C 164.109375 183.917969 158.964844 186.039062 153.855469 188.195312 C 154.386719 188.988281 154.839844 189.859375 155.144531 190.769531 C 159.078125 189.140625 163.046875 187.476562 166.984375 185.847656 L 167.324219 185.699219 L 167.472656 186.039062 C 167.550781 186.265625 167.703125 186.492188 167.890625 186.644531 L 167.929688 186.644531 C 175.265625 193 182.605469 199.355469 189.945312 205.710938 C 190.054688 205.824219 190.207031 205.898438 190.398438 205.972656 C 192.855469 206.882812 195.3125 207.753906 197.773438 208.660156 L 198.683594 209 L 197.773438 209.339844 C 189.339844 212.480469 180.902344 215.617188 172.46875 218.757812 L 172.242188 218.832031 L 172.089844 218.644531 C 165.734375 212.519531 159.378906 206.390625 153.0625 200.226562 C 152.382812 200.941406 151.625 201.550781 150.792969 202.042969 C 157.449219 208.507812 164.070312 214.9375 170.726562 221.371094 L 170.765625 221.40625 L 170.765625 221.445312 C 176.78125 230.824219 182.792969 240.207031 188.808594 249.550781 L 189.601562 250.796875 L 188.316406 250.078125 C 177.421875 243.875 166.527344 237.671875 155.597656 231.507812 C 155.179688 232.378906 154.613281 233.171875 153.933594 233.851562 C 165.054688 240.167969 176.175781 246.488281 187.296875 252.800781 L 188.507812 253.484375 L 187.144531 253.484375 C 174.964844 253.484375 162.746094 253.484375 150.566406 253.484375 L 150.265625 253.484375 L 150.226562 253.144531 C 149.621094 247.695312 149.015625 242.210938 148.449219 236.765625 C 147.957031 236.839844 147.425781 236.878906 146.933594 236.878906 C 146.480469 236.878906 145.988281 236.839844 145.535156 236.765625 C 145.914062 240.359375 146.328125 243.949219 146.707031 247.546875 L 146.859375 249.058594 L 146.066406 247.773438 C 140.65625 239.449219 135.246094 231.089844 129.875 222.769531 L 129.835938 222.769531 C 129.648438 222.390625 129.308594 222.125 128.890625 222.050781 C 121.742188 220.5 114.59375 218.949219 107.441406 217.398438 C 107.332031 218.378906 107.101562 219.324219 106.726562 220.195312 C 113.648438 221.707031 120.609375 223.222656 127.566406 224.699219 L 127.71875 224.738281 L 127.792969 224.847656 C 133.847656 234.230469 139.898438 243.574219 145.949219 252.914062 L 146.328125 253.484375 L 145.648438 253.484375 C 125.5625 253.484375 105.4375 253.484375 85.355469 253.484375 L 84.824219 253.484375 L 85.011719 252.992188 C 88.453125 243.875 91.898438 234.761719 95.339844 225.644531 C 94.394531 225.417969 93.523438 225 92.691406 224.507812 C 89.058594 234.078125 85.464844 243.648438 81.835938 253.257812 L 81.757812 253.484375 L 81.496094 253.484375 C 76.917969 253.484375 72.304688 253.484375 67.726562 253.484375 L 67.613281 253.484375 L 67.5 253.40625 C 60.347656 248.1875 55.621094 240.964844 54.070312 232.226562 C 52.898438 225.796875 53.578125 219.0625 55.660156 212.894531 C 56.453125 210.550781 57.4375 208.242188 58.648438 206.085938 L 58.796875 205.824219 L 59.0625 205.9375 C 68.785156 209.039062 78.507812 212.175781 88.265625 215.316406 C 88.339844 214.335938 88.605469 213.386719 88.984375 212.519531 C 80.472656 209.792969 72 207.070312 63.488281 204.308594 L 62.503906 204.007812 L 63.488281 203.628906 C 78.128906 198.144531 92.765625 192.660156 107.40625 187.210938 C 106.914062 186.378906 106.574219 185.472656 106.347656 184.527344 C 91.972656 189.898438 77.597656 195.269531 63.261719 200.679688 L 61.902344 201.171875 L 62.847656 200.070312 C 63.527344 199.355469 64.207031 198.597656 64.964844 197.953125 C 68.367188 194.777344 72.796875 192.429688 77.5625 192.808594 C 78.355469 192.847656 79.035156 192.242188 79.109375 191.484375 C 79.109375 191.261719 79.074219 191.070312 79.035156 190.878906 L 79 190.878906 L 79 190.84375 C 78.507812 188.914062 78.808594 186.605469 79.261719 184.675781 C 80.472656 179.53125 83.5 174.460938 86.980469 170.492188 L 87.128906 170.300781 L 87.394531 170.417969 C 87.472656 170.453125 87.546875 170.492188 87.660156 170.53125 C 94.015625 173.292969 100.371094 176.09375 106.726562 178.890625 C 107.101562 177.945312 107.59375 177.035156 108.238281 176.277344 C 102.070312 173.59375 95.90625 170.945312 89.777344 168.296875 L 89.25 168.070312 L 89.664062 167.691406 C 93.976562 163.644531 99.160156 160.65625 104.910156 159.070312 C 111.1875 157.367188 117.695312 157.515625 124.011719 159.03125 C 124.769531 159.21875 125.5625 158.726562 125.753906 157.933594 C 125.753906 157.894531 125.789062 157.820312 125.789062 157.78125 L 125.789062 157.746094 C 126.621094 153.167969 127.871094 148.59375 129.722656 144.316406 C 132.484375 137.847656 136.722656 132.175781 143.191406 128.996094 C 145.382812 127.9375 147.730469 127.179688 150.148438 126.765625 L 150.566406 126.6875 L 150.566406 127.105469 C 150.605469 127.445312 150.71875 127.75 150.945312 128.011719 C 157.261719 135.050781 163.578125 142.085938 169.933594 149.160156 L 170.234375 149.460938 L 169.859375 149.6875 C 154.425781 158.691406 139.027344 167.691406 123.597656 176.65625 C 124.164062 177.453125 124.617188 178.320312 124.921875 179.230469 Z M 241.007812 131.230469 C 236.621094 128.199219 232.269531 125.136719 227.882812 122.113281 C 227.429688 121.808594 226.863281 121.773438 226.371094 122.035156 C 210.257812 129.640625 194.179688 137.28125 178.066406 144.921875 C 178.027344 144.921875 177.988281 144.960938 177.914062 144.996094 C 176.289062 145.941406 174.660156 146.886719 173.035156 147.835938 L 172.769531 147.984375 L 172.582031 147.757812 C 166.339844 140.835938 160.097656 133.875 153.855469 126.953125 L 153.328125 126.386719 L 154.085938 126.347656 C 157.527344 126.160156 161.007812 126.5 164.371094 127.105469 C 170.539062 128.238281 176.628906 130.359375 182.339844 132.855469 C 183.019531 133.121094 183.816406 132.855469 184.15625 132.25 L 184.195312 132.210938 C 186.425781 128.730469 189.1875 125.519531 192.328125 122.792969 C 197.621094 118.214844 204.089844 114.847656 211.089844 113.828125 C 218.730469 112.695312 226.027344 114.550781 232.5 118.667969 C 236.015625 120.9375 239.15625 123.777344 241.917969 126.917969 L 241.992188 126.992188 L 242.03125 127.144531 C 242.105469 128.011719 242.179688 128.882812 242.21875 129.753906 L 242.257812 129.941406 L 242.105469 130.054688 C 241.804688 130.285156 241.613281 130.625 241.574219 131 L 241.5 131.566406 Z M 194.632812 253.292969 C 187.863281 242.742188 181.09375 232.148438 174.320312 221.597656 L 174.054688 221.21875 L 174.472656 221.066406 C 183.890625 217.546875 193.308594 214.066406 202.730469 210.550781 L 202.839844 210.511719 L 202.953125 210.550781 C 208.855469 212.707031 214.796875 214.863281 220.695312 217.019531 L 220.921875 217.09375 L 220.921875 217.359375 C 221.605469 228.820312 222.285156 240.320312 222.96875 251.820312 C 223.003906 252.234375 223.191406 252.574219 223.496094 252.839844 L 224.25 253.484375 L 223.265625 253.484375 C 213.808594 253.484375 204.394531 253.484375 194.933594 253.484375 L 194.746094 253.484375 Z M 244.867188 126.652344 L 244.828125 126.308594 C 244.792969 126.007812 244.679688 125.703125 244.488281 125.480469 C 241.425781 121.960938 237.984375 118.78125 234.046875 116.25 C 226.976562 111.710938 219.03125 109.742188 210.671875 110.953125 C 203.144531 112.050781 196.183594 115.683594 190.472656 120.636719 C 187.484375 123.210938 184.800781 126.195312 182.527344 129.488281 L 182.378906 129.714844 L 182.113281 129.601562 C 176.589844 127.296875 170.800781 125.363281 164.902344 124.269531 C 157.261719 122.867188 149.054688 122.945312 141.941406 126.425781 C 134.832031 129.902344 130.140625 136.03125 127.039062 143.179688 C 125.335938 147.113281 124.164062 151.3125 123.292969 155.550781 L 123.21875 155.890625 L 122.875 155.816406 C 116.636719 154.566406 110.28125 154.640625 104.152344 156.308594 C 96.851562 158.3125 90.421875 162.4375 85.355469 167.996094 C 81.34375 172.382812 77.863281 178.171875 76.464844 183.996094 C 76.046875 185.773438 75.78125 187.703125 75.894531 189.519531 L 75.933594 189.898438 L 75.59375 189.898438 C 70.789062 190.199219 66.476562 192.621094 62.996094 195.796875 C 60.613281 197.992188 58.609375 200.566406 56.945312 203.324219 C 56.90625 203.363281 56.90625 203.363281 56.871094 203.402344 L 56.871094 203.441406 C 55.242188 206.125 53.917969 209 52.933594 211.988281 C 50.703125 218.609375 49.984375 225.832031 51.234375 232.757812 C 52.972656 242.398438 58.230469 250.308594 66.175781 255.980469 L 66.210938 256.019531 C 66.476562 256.242188 66.816406 256.359375 67.160156 256.359375 C 72.339844 256.359375 77.5625 256.359375 82.742188 256.359375 C 104.832031 256.359375 126.886719 256.359375 148.976562 256.359375 C 201.785156 256.359375 254.628906 256.359375 307.433594 256.359375 L 307.808594 256.359375 C 308.226562 256.359375 308.644531 256.167969 308.90625 255.828125 C 313.976562 249.816406 318.402344 243.042969 321.125 235.628906 L 321.164062 235.628906 C 321.164062 235.554688 321.203125 235.515625 321.203125 235.4375 C 323.054688 230.375 324.039062 225.074219 324 219.667969 C 323.847656 205.671875 316.699219 193.453125 307.585938 183.316406 L 307.472656 183.164062 L 307.472656 183.011719 C 309.4375 172.949219 308.792969 162.546875 304.746094 153.054688 C 301.835938 146.320312 297.371094 140.382812 291.660156 135.804688 C 286.023438 131.230469 279.328125 128.125 272.214844 126.652344 C 263.289062 124.796875 254.058594 125.59375 245.507812 128.65625 L 245.054688 128.847656 L 245.015625 128.355469 C 244.980469 127.789062 244.90625 127.21875 244.867188 126.652344 " fill-opacity="1" fill-rule="evenodd"/></g></svg>