<svg xmlns="http://www.w3.org/2000/svg" xmlns:xlink="http://www.w3.org/1999/xlink" width="500" zoomAndPan="magnify" viewBox="0 0 375 185.249993" height="247" preserveAspectRatio="xMidYMid meet" version="1.0"><defs><clipPath id="0f6a713cbe"><path d="M 0.757812 1 L 374.242188 1 L 374.242188 184.503906 L 0.757812 184.503906 Z M 0.757812 1 " clip-rule="nonzero"/></clipPath></defs><g clip-path="url(#0f6a713cbe)"><path fill="#6ac66b" d="M 402.109375 193.648438 L 185.269531 199.371094 L -15.660156 196.507812 Z M 402.109375 185.222656 L 185.269531 190.945312 L -15.660156 188.082031 Z M 287.695312 57.539062 C 287.695312 52.644531 291.644531 48.636719 296.59375 48.636719 C 301.492188 48.636719 305.492188 52.644531 305.492188 57.539062 C 305.492188 62.433594 301.492188 66.4375 296.59375 66.4375 C 291.644531 66.4375 287.695312 62.433594 287.695312 57.539062 Z M 249.5 141.691406 C 249.5 136.792969 253.503906 132.792969 258.398438 132.792969 C 263.300781 132.792969 267.300781 136.792969 267.300781 141.691406 C 267.300781 146.589844 263.300781 150.59375 258.398438 150.59375 C 253.503906 150.59375 249.5 146.589844 249.5 141.691406 Z M 300.59375 123.371094 C 300.59375 118.429688 304.550781 114.472656 309.496094 114.472656 C 314.394531 114.472656 318.351562 118.429688 318.351562 123.371094 C 318.351562 128.269531 314.394531 132.226562 309.496094 132.226562 C 304.550781 132.226562 300.59375 128.269531 300.59375 123.371094 Z M 252.515625 59.9375 C 252.515625 55.042969 256.472656 51.039062 261.367188 51.039062 C 266.3125 51.039062 270.265625 55.042969 270.265625 59.9375 C 270.265625 64.839844 266.3125 68.839844 261.367188 68.839844 C 256.472656 68.839844 252.515625 64.839844 252.515625 59.9375 Z M 172.882812 65.121094 C 172.882812 60.222656 176.886719 56.222656 181.78125 56.222656 C 186.679688 56.222656 190.683594 60.222656 190.683594 65.121094 C 190.683594 70.066406 186.679688 74.019531 181.78125 74.019531 C 176.886719 74.019531 172.882812 70.066406 172.882812 65.121094 Z M 213.757812 115.789062 C 213.757812 110.894531 217.761719 106.941406 222.65625 106.941406 C 227.558594 106.941406 231.558594 110.894531 231.558594 115.789062 C 231.558594 120.734375 227.558594 124.691406 222.65625 124.691406 C 217.761719 124.691406 213.757812 120.734375 213.757812 115.789062 Z M 128.144531 146.214844 C 128.144531 141.3125 132.101562 137.359375 137 137.359375 C 141.941406 137.359375 145.898438 141.3125 145.898438 146.214844 C 145.898438 151.15625 141.941406 155.113281 137 155.113281 C 132.101562 155.113281 128.144531 151.15625 128.144531 146.214844 Z M 126.828125 104.539062 C 126.828125 99.636719 130.828125 95.636719 135.726562 95.636719 C 140.625 95.636719 144.625 99.636719 144.625 104.539062 C 144.625 109.433594 140.625 113.4375 135.726562 113.4375 C 130.828125 113.4375 126.828125 109.433594 126.828125 104.539062 Z M 89.292969 90.3125 C 89.292969 85.417969 93.25 81.460938 98.195312 81.460938 C 103.09375 81.460938 107.09375 85.417969 107.09375 90.3125 C 107.09375 95.257812 103.09375 99.214844 98.195312 99.214844 C 93.25 99.214844 89.292969 95.257812 89.292969 90.3125 Z M 67.019531 132.699219 C 67.019531 127.800781 70.976562 123.796875 75.921875 123.796875 C 80.816406 123.796875 84.773438 127.800781 84.773438 132.699219 C 84.773438 137.59375 80.816406 141.597656 75.921875 141.597656 C 70.976562 141.597656 67.019531 137.59375 67.019531 132.699219 Z M 95.324219 102.042969 C 94.144531 101.757812 93.015625 101.285156 91.980469 100.628906 C 87.976562 107.546875 83.925781 114.421875 79.875 121.347656 C 81.007812 121.722656 82.089844 122.289062 83.03125 122.996094 C 87.128906 116.027344 91.226562 109.007812 95.324219 102.042969 Z M 137 134.203125 C 136.714844 128.320312 136.386719 122.429688 136.105469 116.546875 C 135.964844 116.546875 135.867188 116.546875 135.726562 116.546875 C 134.644531 116.546875 133.5625 116.40625 132.476562 116.121094 C 132.808594 122.335938 133.136719 128.554688 133.417969 134.769531 C 134.597656 134.390625 135.773438 134.203125 137 134.203125 Z M 299.605469 130.203125 C 298.898438 129.214844 298.382812 128.128906 298.003906 126.953125 C 288.398438 130.105469 278.835938 133.308594 269.230469 136.464844 C 269.75 137.546875 270.128906 138.675781 270.316406 139.902344 C 280.0625 136.652344 289.8125 133.449219 299.605469 130.203125 Z M 233.203125 121.632812 C 232.597656 122.667969 231.890625 123.65625 230.996094 124.457031 C 236.644531 128.269531 242.246094 132.085938 247.902344 135.898438 C 248.464844 134.816406 249.21875 133.875 250.066406 133.027344 C 244.464844 129.214844 238.808594 125.398438 233.203125 121.632812 Z M 269.703125 68.605469 C 268.855469 69.453125 267.867188 70.160156 266.785156 70.679688 C 278.179688 85.417969 289.574219 100.15625 300.921875 114.898438 C 301.773438 114.050781 302.761719 113.296875 303.796875 112.730469 C 292.449219 98.035156 281.097656 83.34375 269.703125 68.605469 Z M 249.5 61.777344 C 240.695312 65.214844 231.933594 68.652344 223.128906 72.089844 L 223.035156 72.136719 L 222.894531 72.089844 C 213.191406 69.78125 203.492188 67.519531 193.789062 65.214844 C 193.789062 66.4375 193.601562 67.613281 193.226562 68.796875 C 203.066406 71.101562 212.910156 73.410156 222.75 75.714844 C 223.082031 75.8125 223.457031 75.8125 223.789062 75.667969 C 232.734375 72.183594 241.636719 68.699219 250.585938 65.214844 C 250.066406 64.132812 249.691406 62.953125 249.5 61.777344 Z M 228.875 105.523438 C 229.910156 106.136719 230.851562 106.941406 231.65625 107.832031 C 239.609375 95.402344 247.570312 82.921875 255.53125 70.441406 C 254.449219 69.828125 253.503906 69.125 252.703125 68.226562 C 244.742188 80.664062 236.832031 93.09375 228.875 105.523438 Z M 110.0625 92.246094 C 109.875 93.46875 109.496094 94.597656 108.933594 95.679688 C 113.921875 97.898438 118.914062 100.0625 123.90625 102.226562 C 124.144531 101.050781 124.566406 99.921875 125.132812 98.839844 C 120.09375 96.671875 115.101562 94.460938 110.0625 92.246094 Z M 300.125 68.699219 C 298.996094 69.074219 297.769531 69.265625 296.59375 69.265625 L 306.058594 111.835938 C 307.140625 111.503906 308.316406 111.320312 309.496094 111.320312 C 309.496094 111.320312 309.542969 111.320312 309.589844 111.320312 Z M 109.589844 86.5 C 129.085938 75.105469 148.628906 63.753906 168.125 52.359375 L 168.457031 52.171875 L 168.691406 52.453125 C 170.058594 54.007812 171.46875 55.5625 172.835938 57.066406 C 173.636719 56.171875 174.578125 55.417969 175.613281 54.804688 C 174.390625 53.441406 173.164062 52.074219 171.988281 50.757812 L 171.609375 50.332031 L 172.082031 50.050781 C 173.824219 49.015625 175.566406 48.023438 177.355469 46.988281 C 197.039062 37.667969 216.679688 28.339844 236.363281 19.019531 L 236.597656 18.921875 L 236.785156 19.0625 C 243.238281 23.585938 249.691406 28.058594 256.140625 32.535156 L 256.328125 32.675781 L 256.328125 32.863281 C 256.753906 38.089844 257.222656 43.316406 257.648438 48.496094 C 258.824219 48.121094 260.003906 47.929688 261.230469 47.929688 C 260.894531 44.023438 260.566406 40.164062 260.238281 36.300781 L 260.144531 35.3125 L 285.714844 53.15625 C 286.183594 52.03125 286.796875 50.996094 287.550781 50.050781 L 259.765625 30.695312 L 259.71875 30.460938 C 259.671875 29.566406 259.578125 28.71875 259.484375 27.824219 L 259.484375 27.492188 L 259.765625 27.351562 C 270.128906 23.441406 281.382812 22.265625 292.257812 24.527344 C 300.546875 26.269531 308.316406 29.894531 314.914062 35.214844 C 317.125 36.960938 319.152344 38.890625 321.03125 40.960938 L 321.410156 41.386719 L 305.824219 50.332031 C 306.578125 51.277344 307.140625 52.308594 307.5625 53.441406 L 323.671875 44.210938 L 323.90625 44.492188 C 326.402344 47.839844 328.519531 51.511719 330.167969 55.324219 C 335.066406 66.816406 335.679688 79.484375 333.136719 91.585938 C 333.042969 92.152344 333.183594 92.761719 333.5625 93.1875 C 344.671875 105.242188 353.667969 120.027344 353.855469 136.886719 C 353.902344 142.164062 353.101562 147.390625 351.546875 152.429688 L 351.359375 153.039062 L 350.839844 152.667969 C 340.53125 144.894531 330.21875 137.121094 319.90625 129.355469 C 319.292969 130.390625 318.535156 131.332031 317.6875 132.132812 C 328.378906 140.230469 339.117188 148.332031 349.808594 156.382812 L 350.085938 156.617188 L 349.949219 156.949219 C 346.792969 164.859375 342.035156 172.207031 336.574219 178.753906 L 336.429688 178.941406 L 336.246094 178.941406 C 312.554688 178.941406 288.871094 178.941406 265.230469 178.941406 L 264.804688 178.941406 L 264.757812 178.519531 C 263.960938 170.039062 263.15625 161.566406 262.355469 153.039062 C 261.230469 153.464844 260.046875 153.652344 258.824219 153.699219 C 259.625 161.941406 260.378906 170.183594 261.179688 178.425781 L 261.230469 178.941406 L 260.710938 178.941406 C 252.089844 178.941406 243.519531 178.941406 234.902344 178.941406 L 233.675781 178.941406 L 234.621094 178.140625 C 235.042969 177.765625 235.28125 177.246094 235.230469 176.679688 C 234.339844 161.847656 233.488281 147.0625 232.597656 132.273438 C 232.546875 131.566406 232.078125 130.953125 231.417969 130.71875 C 228.78125 129.730469 226.144531 128.789062 223.503906 127.800781 C 223.222656 127.84375 222.941406 127.84375 222.65625 127.84375 C 219.503906 127.84375 216.539062 126.625 214.277344 124.457031 C 213.851562 124.269531 213.378906 124.128906 212.910156 123.9375 L 211.78125 123.515625 L 212.910156 123.089844 C 212.957031 123.089844 213.007812 123.089844 213.050781 123.042969 C 212.34375 122.101562 211.734375 121.019531 211.355469 119.886719 C 209.800781 120.453125 208.296875 121.019531 206.742188 121.582031 L 206.597656 121.632812 L 206.460938 121.582031 C 201.84375 119.933594 197.277344 118.238281 192.707031 116.589844 L 192.613281 116.546875 L 192.566406 116.496094 C 183.996094 109.058594 175.378906 101.613281 166.808594 94.175781 L 166.523438 93.941406 L 166.710938 93.613281 C 166.902344 93.28125 167.089844 92.953125 167.324219 92.574219 L 167.371094 92.433594 L 167.515625 92.386719 C 172.128906 90.503906 176.699219 88.570312 181.265625 86.640625 L 181.5 86.546875 L 181.734375 86.738281 C 191.765625 94.597656 201.84375 102.511719 211.921875 110.421875 C 212.4375 109.339844 213.144531 108.351562 213.992188 107.457031 C 203.632812 99.355469 193.273438 91.210938 182.914062 83.0625 C 182.394531 82.6875 181.640625 82.59375 181.027344 82.875 C 177.875 84.191406 174.71875 85.511719 171.566406 86.828125 L 170.339844 87.347656 L 171.046875 86.171875 C 172.976562 82.824219 174.90625 79.484375 176.839844 76.089844 C 175.753906 75.621094 174.71875 74.964844 173.824219 74.160156 C 170.90625 79.25 167.9375 84.378906 164.972656 89.46875 L 164.875 89.605469 L 164.734375 89.65625 C 158.378906 92.335938 151.972656 94.976562 145.617188 97.664062 C 146.273438 98.648438 146.839844 99.734375 147.21875 100.863281 C 152.117188 98.839844 157.058594 96.765625 161.957031 94.742188 L 162.382812 94.554688 L 162.570312 94.976562 C 162.664062 95.257812 162.851562 95.539062 163.085938 95.730469 L 163.136719 95.730469 C 172.269531 103.640625 181.40625 111.554688 190.542969 119.464844 C 190.683594 119.605469 190.871094 119.699219 191.105469 119.792969 C 194.167969 120.925781 197.226562 122.007812 200.292969 123.136719 L 201.421875 123.5625 L 200.292969 123.984375 C 189.789062 127.894531 179.289062 131.800781 168.785156 135.710938 L 168.503906 135.804688 L 168.3125 135.570312 C 160.402344 127.941406 152.492188 120.3125 144.625 112.636719 C 143.78125 113.53125 142.835938 114.285156 141.800781 114.898438 C 150.089844 122.949219 158.332031 130.953125 166.621094 138.960938 L 166.667969 139.007812 L 166.667969 139.054688 C 174.152344 150.734375 181.640625 162.414062 189.128906 174.046875 L 190.117188 175.597656 L 188.515625 174.703125 C 174.953125 166.980469 161.390625 159.257812 147.78125 151.582031 C 147.265625 152.667969 146.558594 153.652344 145.710938 154.5 C 159.554688 162.367188 173.402344 170.230469 187.246094 178.09375 L 188.753906 178.941406 L 187.058594 178.941406 C 171.894531 178.941406 156.683594 178.941406 141.519531 178.941406 L 141.144531 178.941406 L 141.097656 178.519531 C 140.339844 171.738281 139.589844 164.90625 138.882812 158.128906 C 138.269531 158.222656 137.613281 158.265625 137 158.265625 C 136.433594 158.265625 135.820312 158.222656 135.253906 158.128906 C 135.726562 162.601562 136.246094 167.074219 136.714844 171.550781 L 136.902344 173.433594 L 135.914062 171.832031 C 129.179688 161.46875 122.449219 151.0625 115.761719 140.703125 L 115.714844 140.703125 C 115.476562 140.230469 115.054688 139.902344 114.535156 139.808594 C 105.636719 137.875 96.734375 135.945312 87.835938 134.015625 C 87.695312 135.238281 87.410156 136.417969 86.941406 137.5 C 95.558594 139.382812 104.222656 141.269531 112.886719 143.105469 L 113.078125 143.152344 L 113.167969 143.292969 C 120.703125 154.972656 128.238281 166.601562 135.773438 178.234375 L 136.246094 178.941406 L 135.398438 178.941406 C 110.390625 178.941406 85.339844 178.941406 60.332031 178.941406 L 59.675781 178.941406 L 59.910156 178.332031 C 64.195312 166.980469 68.480469 155.632812 72.765625 144.28125 C 71.589844 144 70.503906 143.480469 69.46875 142.871094 C 64.949219 154.785156 60.472656 166.695312 55.953125 178.660156 L 55.859375 178.941406 L 55.527344 178.941406 C 49.832031 178.941406 44.085938 178.941406 38.386719 178.941406 L 38.246094 178.941406 L 38.105469 178.847656 C 29.207031 172.347656 23.320312 163.355469 21.386719 152.476562 C 19.929688 144.472656 20.777344 136.085938 23.367188 128.414062 C 24.355469 125.492188 25.578125 122.617188 27.085938 119.933594 L 27.273438 119.605469 L 27.605469 119.75 C 39.707031 123.609375 51.808594 127.515625 63.960938 131.425781 C 64.054688 130.203125 64.382812 129.023438 64.855469 127.941406 C 54.257812 124.550781 43.710938 121.160156 33.113281 117.722656 L 31.890625 117.347656 L 33.113281 116.875 C 51.339844 110.046875 69.5625 103.21875 87.789062 96.4375 C 87.175781 95.402344 86.753906 94.269531 86.46875 93.09375 C 68.574219 99.78125 50.679688 106.464844 32.832031 113.203125 L 31.136719 113.816406 L 32.3125 112.445312 C 33.160156 111.554688 34.007812 110.613281 34.949219 109.808594 C 39.1875 105.855469 44.699219 102.933594 50.632812 103.40625 C 51.621094 103.453125 52.46875 102.699219 52.5625 101.757812 C 52.5625 101.476562 52.515625 101.238281 52.46875 101.003906 L 52.421875 101.003906 L 52.421875 100.957031 C 51.808594 98.554688 52.1875 95.679688 52.75 93.28125 C 54.257812 86.875 58.027344 80.566406 62.359375 75.621094 L 62.546875 75.386719 L 62.875 75.527344 C 62.96875 75.574219 63.0625 75.621094 63.207031 75.667969 C 71.117188 79.105469 79.027344 82.59375 86.941406 86.074219 C 87.410156 84.898438 88.023438 83.769531 88.824219 82.824219 C 81.148438 79.484375 73.472656 76.183594 65.84375 72.890625 L 65.183594 72.605469 L 65.703125 72.136719 C 71.070312 67.097656 77.523438 63.375 84.679688 61.402344 C 92.496094 59.28125 100.597656 59.46875 108.460938 61.351562 C 109.402344 61.585938 110.390625 60.976562 110.628906 59.988281 C 110.628906 59.9375 110.675781 59.847656 110.675781 59.796875 L 110.675781 59.753906 C 111.710938 54.054688 113.265625 48.355469 115.570312 43.03125 C 119.011719 34.980469 124.285156 27.917969 132.335938 23.960938 C 135.066406 22.644531 137.988281 21.703125 141 21.183594 L 141.519531 21.089844 L 141.519531 21.609375 C 141.566406 22.03125 141.707031 22.40625 141.988281 22.738281 C 149.855469 31.496094 157.71875 40.257812 165.628906 49.0625 L 166.007812 49.441406 L 165.535156 49.71875 C 146.324219 60.929688 127.15625 72.136719 107.941406 83.296875 C 108.648438 84.285156 109.214844 85.371094 109.589844 86.5 Z M 254.113281 26.742188 C 248.652344 22.972656 243.238281 19.15625 237.777344 15.390625 C 237.210938 15.015625 236.503906 14.96875 235.890625 15.296875 C 215.832031 24.761719 195.816406 34.273438 175.753906 43.785156 C 175.707031 43.785156 175.660156 43.835938 175.566406 43.882812 C 173.542969 45.058594 171.515625 46.234375 169.492188 47.414062 L 169.160156 47.601562 L 168.925781 47.320312 C 161.15625 38.703125 153.386719 30.039062 145.617188 21.417969 L 144.957031 20.710938 L 145.898438 20.667969 C 150.183594 20.429688 154.515625 20.851562 158.707031 21.609375 C 166.382812 23.019531 173.964844 25.660156 181.078125 28.765625 C 181.925781 29.097656 182.914062 28.765625 183.335938 28.011719 L 183.382812 27.964844 C 186.160156 23.632812 189.597656 19.632812 193.511719 16.238281 C 200.101562 10.539062 208.152344 6.347656 216.867188 5.078125 C 226.378906 3.664062 235.464844 5.976562 243.519531 11.105469 C 247.902344 13.929688 251.808594 17.464844 255.246094 21.371094 L 255.339844 21.464844 L 255.386719 21.65625 C 255.480469 22.738281 255.574219 23.820312 255.625 24.902344 L 255.667969 25.140625 L 255.480469 25.28125 C 255.105469 25.566406 254.871094 25.988281 254.820312 26.457031 L 254.726562 27.164062 Z M 196.378906 178.703125 C 187.953125 165.566406 179.523438 152.382812 171.09375 139.242188 L 170.761719 138.773438 L 171.28125 138.582031 C 183.007812 134.203125 194.734375 129.871094 206.460938 125.492188 L 206.597656 125.445312 L 206.742188 125.492188 C 214.085938 128.175781 221.480469 130.859375 228.828125 133.546875 L 229.109375 133.640625 L 229.109375 133.96875 C 229.957031 148.238281 230.804688 162.550781 231.65625 176.871094 C 231.699219 177.386719 231.933594 177.8125 232.3125 178.140625 L 233.253906 178.941406 L 232.027344 178.941406 C 220.253906 178.941406 208.53125 178.941406 196.757812 178.941406 L 196.523438 178.941406 Z M 258.917969 21.042969 L 258.871094 20.617188 C 258.824219 20.242188 258.683594 19.863281 258.449219 19.582031 C 254.632812 15.203125 250.347656 11.246094 245.449219 8.09375 C 236.644531 2.441406 226.757812 -0.0078125 216.347656 1.5 C 206.976562 2.867188 198.3125 7.386719 191.203125 13.554688 C 187.480469 16.757812 184.136719 20.476562 181.3125 24.574219 L 181.125 24.859375 L 180.792969 24.714844 C 173.917969 21.84375 166.710938 19.441406 159.367188 18.078125 C 149.855469 16.332031 139.636719 16.429688 130.78125 20.757812 C 121.929688 25.089844 116.089844 32.71875 112.230469 41.621094 C 110.109375 46.519531 108.648438 51.746094 107.566406 57.019531 L 107.472656 57.445312 L 107.046875 57.351562 C 99.277344 55.796875 91.367188 55.890625 83.738281 57.964844 C 74.648438 60.457031 66.644531 65.59375 60.332031 72.511719 C 55.339844 77.976562 51.007812 85.183594 49.265625 92.433594 C 48.75 94.648438 48.417969 97.050781 48.558594 99.308594 L 48.605469 99.78125 L 48.183594 99.78125 C 42.203125 100.15625 36.835938 103.171875 32.503906 107.125 C 29.535156 109.859375 27.039062 113.058594 24.96875 116.496094 C 24.921875 116.546875 24.921875 116.546875 24.871094 116.589844 L 24.871094 116.640625 C 22.847656 119.984375 21.199219 123.5625 19.976562 127.28125 C 17.199219 135.523438 16.300781 144.515625 17.855469 153.136719 C 20.023438 165.140625 26.570312 174.984375 36.457031 182.050781 L 36.503906 182.097656 C 36.835938 182.378906 37.257812 182.519531 37.683594 182.519531 C 44.132812 182.519531 50.632812 182.519531 57.085938 182.519531 C 84.585938 182.519531 112.039062 182.519531 139.542969 182.519531 C 205.28125 182.519531 271.070312 182.519531 336.808594 182.519531 L 337.277344 182.519531 C 337.796875 182.519531 338.316406 182.285156 338.644531 181.863281 C 344.957031 174.375 350.464844 165.945312 353.855469 156.710938 L 353.902344 156.710938 C 353.902344 156.617188 353.949219 156.574219 353.949219 156.476562 C 356.261719 150.171875 357.480469 143.574219 357.4375 136.84375 C 357.246094 119.417969 348.347656 104.207031 337 91.585938 L 336.855469 91.394531 L 336.855469 91.210938 C 339.304688 78.679688 338.503906 65.730469 333.464844 53.914062 C 329.839844 45.527344 324.285156 38.136719 317.171875 32.441406 C 310.15625 26.742188 301.820312 22.878906 292.964844 21.042969 C 281.851562 18.734375 270.363281 19.726562 259.71875 23.539062 L 259.15625 23.773438 L 259.105469 23.164062 C 259.0625 22.457031 258.96875 21.75 258.917969 21.042969 " fill-opacity="1" fill-rule="evenodd"/></g></svg>